<svg width="32" height="32" viewBox="0 0 32 32" fill="none" xmlns="http://www.w3.org/2000/svg">
<rect width="32" height="32" fill="#26242C"/>
<path fill-rule="evenodd" clip-rule="evenodd" d="M10.3871 8.24492C10.2138 8.42138 10.2157 8.706 10.3871 8.88056C10.5603 9.05702 10.8379 9.05512 11.0112 8.88056C11.0373 8.85399 11.0596 8.82363 11.0782 8.79328C11.5365 8.50866 12.0153 8.26959 12.5053 8.07795C13.0046 7.88442 13.5169 7.73642 14.0367 7.63775C14.1895 7.68708 14.3628 7.64914 14.482 7.5277C14.6534 7.35314 14.6553 7.06663 14.482 6.89207C14.3236 6.73079 14.0758 6.71751 13.9026 6.85222C13.3325 6.96038 12.7699 7.11976 12.224 7.33227C11.6819 7.54288 11.1584 7.80473 10.6609 8.114C10.5622 8.12349 10.4634 8.16713 10.3871 8.24492Z" fill="url(#paint0_radial_270_741)"/>
<path fill-rule="evenodd" clip-rule="evenodd" d="M20.5305 5.41928C21.0652 5.66974 21.5868 5.96194 22.0936 6.30158C22.0899 6.42111 22.1327 6.54255 22.2221 6.63362C22.3954 6.81008 22.6748 6.80819 22.8462 6.63362C23.0176 6.45906 23.0195 6.17445 22.8462 5.99799C22.714 5.86327 22.5184 5.83102 22.3563 5.90312C21.8309 5.5521 21.285 5.24661 20.7243 4.98477C20.156 4.71913 19.5729 4.49903 18.9805 4.32637C18.96 4.25806 18.9227 4.19355 18.8706 4.14042C18.6973 3.96396 18.4197 3.96586 18.2464 4.14042C18.075 4.31499 18.0732 4.5996 18.2464 4.77605C18.4141 4.94682 18.6842 4.95252 18.8575 4.78934C19.4276 4.95441 19.9865 5.16502 20.5305 5.41928Z" fill="url(#paint1_radial_270_741)"/>
<path fill-rule="evenodd" clip-rule="evenodd" d="M23.8628 19.665L23.9019 19.7029C22.894 22.3233 20.7124 24.3212 18.0501 25.065C17.9085 25.0328 17.752 25.0726 17.6403 25.1846C17.4689 25.3591 17.4689 25.6456 17.6403 25.8202C17.8079 25.991 18.0744 25.9948 18.2476 25.8354C19.004 25.6248 19.738 25.3193 20.4348 24.917C21.901 24.0708 23.1287 22.8375 23.9801 21.3537C24.2391 20.9021 24.4608 20.4334 24.6434 19.9534C24.8651 19.9325 25.083 19.8358 25.2544 19.6631C25.6382 19.2722 25.6401 18.6366 25.2544 18.2438C24.8707 17.853 24.2465 17.853 23.8609 18.2438C23.479 18.6385 23.479 19.2741 23.8628 19.665Z" fill="url(#paint2_radial_270_741)"/>
<path fill-rule="evenodd" clip-rule="evenodd" d="M25.2368 23.5764C25.0934 23.7775 24.9425 23.973 24.786 24.1646C24.5568 24.4454 24.3072 24.7243 24.0389 24.9976C23.2192 25.8324 22.3137 26.5174 21.3506 27.0563C20.4638 27.5515 19.5285 27.9234 18.5672 28.172C18.3939 27.9993 18.1164 27.9993 17.945 28.1738C17.7736 28.3484 17.7736 28.6349 17.945 28.8095C18.1182 28.9859 18.3977 28.9859 18.5691 28.8095C18.6175 28.7601 18.6529 28.6994 18.6753 28.6368C19.6757 28.3788 20.6519 27.9917 21.576 27.4737C22.5802 26.9121 23.5229 26.1986 24.3724 25.3353C24.6425 25.0602 24.9015 24.7718 25.1474 24.4701C25.3132 24.2671 25.4697 24.0603 25.6206 23.8515C25.7417 23.8572 25.8647 23.8136 25.956 23.7206C26.1292 23.5442 26.1292 23.2614 25.956 23.085C25.7827 22.9085 25.5032 22.9085 25.3318 23.085C25.2014 23.2178 25.1698 23.4132 25.2368 23.5764Z" fill="url(#paint3_radial_270_741)"/>
<path fill-rule="evenodd" clip-rule="evenodd" d="M27.747 13.8934C27.3334 11.8347 26.4112 9.86329 24.9804 8.18598C25.0922 7.83875 25.0121 7.44219 24.7401 7.16517C24.3563 6.7743 23.7322 6.77431 23.3484 7.16707C23.0615 7.45927 22.9889 7.88239 23.1267 8.2429L20.6209 10.7949C19.2703 9.55591 17.5805 8.9089 15.8777 8.85387V7.50101C16.6956 7.53327 17.5116 7.68127 18.2978 7.9488C19.0243 8.19547 19.7342 8.54459 20.3993 8.99807C20.4179 9.03602 20.444 9.07207 20.4756 9.10243C20.6489 9.27699 20.9284 9.27889 21.0997 9.10053C21.273 8.92407 21.273 8.63946 21.0997 8.4668C21.0271 8.3928 20.9377 8.34916 20.8426 8.33777C20.1179 7.84445 19.3448 7.46306 18.5437 7.19173C17.6718 6.89574 16.7738 6.73256 15.874 6.7003V2.97758C16.0435 2.93584 16.2037 2.84856 16.336 2.71384C16.7216 2.32108 16.7198 1.68544 16.336 1.29457C15.9503 0.901809 15.3281 0.901809 14.9425 1.29457C14.5587 1.68544 14.5587 2.32108 14.9425 2.71384C15.0747 2.84856 15.2349 2.93584 15.4045 2.97948V3.8466C14.5438 3.86367 13.6886 3.97183 12.8484 4.16916C12.0473 4.3589 11.2593 4.63023 10.5029 4.98125C10.3315 4.8712 10.1023 4.89207 9.95514 5.04386C9.78188 5.22032 9.78188 5.50304 9.95514 5.6795C10.1284 5.85595 10.4079 5.85595 10.5793 5.6795C10.6519 5.6055 10.6948 5.51252 10.7041 5.41386C11.4307 5.07612 12.1852 4.81617 12.9565 4.63592C13.7613 4.44618 14.581 4.34372 15.4045 4.32664V8.85387C13.6998 8.9089 12.0101 9.55591 10.6594 10.7949L9.72599 9.84432C9.71481 9.72668 9.66637 9.61283 9.5788 9.52555C9.37946 9.32253 9.05716 9.32253 8.85595 9.52555C8.65661 9.72668 8.65661 10.0568 8.85595 10.2618C8.94352 10.3509 9.0553 10.4022 9.16894 10.4116L10.1023 11.3623C8.88576 12.7379 8.25047 14.4607 8.19644 16.195H3.96365C3.94129 16.1494 3.91149 16.1058 3.87236 16.0697C3.67302 15.8648 3.34885 15.8648 3.14951 16.0678C2.95016 16.2709 2.95016 16.601 3.14951 16.804C3.19049 16.8458 3.23707 16.878 3.28551 16.9027C3.32091 17.8647 3.4625 18.821 3.71214 19.7545C3.96551 20.7032 4.33067 21.6292 4.80946 22.5096C4.72004 22.6803 4.74612 22.8966 4.88585 23.0408C5.05911 23.2173 5.33856 23.2173 5.51182 23.0408C5.68508 22.8644 5.68508 22.5798 5.50996 22.4052C5.42799 22.3217 5.32366 22.2781 5.21746 22.2743C4.76289 21.4318 4.41264 20.5419 4.16858 19.6293C3.92825 18.7318 3.79225 17.8153 3.75685 16.8932C3.7997 16.8704 3.83883 16.842 3.87422 16.804C3.91148 16.7661 3.94129 16.7224 3.96738 16.6769H6.07818C6.09495 17.3979 6.18996 18.1189 6.36509 18.8248C6.53835 19.5211 6.78427 20.2004 7.10657 20.8474C7.10657 20.9613 7.14942 21.0751 7.23512 21.1624C7.40838 21.3388 7.68784 21.3388 7.85923 21.1624C8.0325 20.9859 8.0325 20.7013 7.85923 20.5268C7.84247 20.5078 7.82197 20.4926 7.80148 20.4774C7.50526 19.8835 7.27983 19.2631 7.12334 18.6312C6.96498 17.9899 6.87742 17.3353 6.86065 16.6788H8.19644C8.25047 18.4149 8.88576 20.1359 10.1023 21.5115L7.02646 24.6441C6.67249 24.5018 6.25517 24.5777 5.97013 24.8699C5.58634 25.2608 5.58448 25.8964 5.97013 26.2873C6.35391 26.6782 6.97802 26.6782 7.36367 26.2873C7.45309 26.1962 7.52203 26.0919 7.57046 25.9799C8.27096 26.5947 9.02176 27.1165 9.80982 27.5453C10.7767 28.0728 11.8014 28.4598 12.8503 28.7065C12.8726 28.7672 12.9062 28.8222 12.9527 28.8716C13.126 29.048 13.4055 29.048 13.5787 28.8716C13.752 28.6951 13.752 28.4105 13.5787 28.2359C13.4055 28.0595 13.126 28.0595 12.9527 28.2359L12.9509 28.2397C11.9448 28.0026 10.963 27.6307 10.0334 27.1222C9.18384 26.6592 8.37715 26.0843 7.63753 25.3955C7.62636 25.3329 7.60959 25.2703 7.58537 25.2096L9.15962 23.6063C9.73157 24.1432 10.3557 24.5986 11.0152 24.9686C11.535 25.2608 12.0753 25.4999 12.6286 25.6877C12.6565 25.8983 12.7497 26.0995 12.9062 26.2607C13.2918 26.6535 13.9159 26.6535 14.2997 26.2626C14.6854 25.8699 14.6835 25.2342 14.2997 24.8434C13.9159 24.4506 13.2918 24.4506 12.9062 24.8434C12.8838 24.868 12.8596 24.8946 12.8391 24.9212C12.3417 24.7504 11.8591 24.536 11.3953 24.2741C10.8028 23.9402 10.2383 23.5304 9.71481 23.0408L10.6594 22.0788C12.0101 23.3178 13.6998 23.9649 15.4045 24.0199V30.1694C15.3765 30.1865 15.3523 30.2074 15.3281 30.232C15.1548 30.4085 15.1548 30.6931 15.3281 30.8677C15.5014 31.0441 15.7808 31.0441 15.9522 30.8677C16.1255 30.6912 16.1255 30.4066 15.9522 30.232C15.928 30.2093 15.9019 30.1884 15.874 30.1694L15.8758 24.0199C19.805 23.8947 22.959 20.6785 23.0839 16.6788H26.102C26.1187 16.7073 26.1392 16.7319 26.1634 16.7566C26.3367 16.9331 26.6162 16.9331 26.7876 16.7566C26.9608 16.5801 26.9608 16.2955 26.7876 16.121C26.6143 15.9445 26.3348 15.9445 26.1634 16.121C26.1392 16.1456 26.1187 16.1722 26.102 16.2007H23.0839C23.0317 14.4626 22.3946 12.7436 21.178 11.3679L22.1226 10.406C22.5455 10.8765 22.9087 11.3774 23.2143 11.9049C23.4434 12.2996 23.6391 12.7094 23.803 13.1287L23.7676 13.161C23.3838 13.5538 23.3838 14.1875 23.7676 14.5803C24.1532 14.9711 24.7755 14.9711 25.1611 14.5803C25.5449 14.1875 25.5449 13.5519 25.1611 13.161C24.9897 12.9864 24.7699 12.8897 24.5445 12.8707C24.3638 12.4001 24.1458 11.9429 23.8887 11.4989C23.5496 10.9107 23.1453 10.3547 22.6777 9.83673L23.6838 8.81402C24.0266 8.95064 24.4308 8.88423 24.7159 8.6129C26.0424 10.2029 26.8975 12.0605 27.2887 13.994C27.7303 16.1855 27.5719 18.4738 26.8118 20.5932C26.7298 20.6102 26.6516 20.652 26.5864 20.7165C26.4131 20.893 26.4131 21.1776 26.5864 21.3521C26.7596 21.5286 27.0391 21.5286 27.2105 21.3521C27.367 21.1927 27.3819 20.9404 27.2515 20.7639C28.0414 18.5553 28.2053 16.1722 27.747 13.8934ZM20.226 21.1244C17.6848 23.7125 13.5675 23.7125 11.0264 21.1244C8.48521 18.5364 8.48521 14.3431 11.0264 11.755C13.5675 9.16694 17.6848 9.16694 20.226 11.755C22.7672 14.3412 22.7672 18.5364 20.226 21.1244Z" fill="url(#paint4_radial_270_741)"/>
<path fill-rule="evenodd" clip-rule="evenodd" d="M7.37778 7.38186C7.20452 7.2054 6.92506 7.2054 6.75366 7.38186C6.64002 7.4976 6.6009 7.65698 6.63629 7.80498C5.87059 8.63415 5.2353 9.54301 4.73042 10.5069C4.21064 11.4992 3.83058 12.5466 3.59025 13.6206C3.53249 13.6414 3.47661 13.6775 3.43003 13.7249C3.25863 13.8995 3.25677 14.186 3.43003 14.3605C3.60329 14.537 3.88274 14.537 4.05414 14.3605C4.2274 14.1841 4.2274 13.8995 4.05414 13.7249L4.05041 13.7211C4.28143 12.6908 4.64658 11.6852 5.14587 10.7346C5.6284 9.81244 6.23947 8.93963 6.97723 8.14082C7.11695 8.17118 7.26972 8.12944 7.37964 8.01749C7.55104 7.84103 7.55104 7.55832 7.37778 7.38186Z" fill="url(#paint5_radial_270_741)"/>
<path d="M15.542 12.4839C15.8959 12.4839 16.1996 12.4934 16.4493 12.5123C16.6989 12.5313 16.9281 12.5579 17.1386 12.5958C17.3491 12.6319 18.3849 12.7609 18.6104 12.8197L18.48 14.0701C18.2415 14.0549 17.2019 13.9639 17.0026 13.9563C16.8032 13.9487 16.589 13.9411 16.3617 13.9335C16.1344 13.9259 15.8605 13.9221 15.542 13.9221C15.1731 13.9221 14.8843 13.998 14.6775 14.1498C14.4707 14.3016 14.3235 14.5578 14.2378 14.9183C14.1503 15.2807 14.1074 15.7854 14.1074 16.4343C14.1074 17.0756 14.1503 17.5803 14.2378 17.9446C14.3254 18.3089 14.4707 18.567 14.6775 18.7131C14.8843 18.8611 15.1712 18.9351 15.542 18.9351C16.0413 18.9351 16.4623 18.9275 16.8014 18.9123C17.1423 18.8971 18.1465 18.7416 18.48 18.7055L18.6215 19.9445C18.2732 20.0546 17.2504 20.2633 16.8889 20.3126C16.5275 20.36 16.0785 20.3847 15.542 20.3847C14.7669 20.3847 14.1484 20.2576 13.6845 20.0033C13.2206 19.7491 12.8853 19.3335 12.6804 18.7586C12.4736 18.1837 12.3711 17.4096 12.3711 16.4343C12.3711 15.4609 12.4736 14.6868 12.6804 14.11C12.8872 13.535 13.2225 13.1195 13.6845 12.8653C14.1466 12.611 14.7669 12.4839 15.542 12.4839Z" fill="url(#paint6_radial_270_741)"/>
<path d="M15.2233 10.625H14.1875V13.6969H15.2233V10.625Z" fill="url(#paint7_radial_270_741)"/>
<path d="M17.0358 10.625H16V13.6969H17.0358V10.625Z" fill="url(#paint8_radial_270_741)"/>
<path d="M15.2233 19.1738H14.1875V22.2457H15.2233V19.1738Z" fill="url(#paint9_radial_270_741)"/>
<path d="M17.0358 19.1738H16V22.2457H17.0358V19.1738Z" fill="url(#paint10_radial_270_741)"/>
<defs>
<radialGradient id="paint0_radial_270_741" cx="0" cy="0" r="1" gradientUnits="userSpaceOnUse" gradientTransform="translate(13.6473 16.4472) scale(13.3219 13.5678)">
<stop offset="0.0568" stop-color="#F7C069"/>
<stop offset="1" stop-color="#936A2E"/>
</radialGradient>
<radialGradient id="paint1_radial_270_741" cx="0" cy="0" r="1" gradientUnits="userSpaceOnUse" gradientTransform="translate(13.5777 16.4468) scale(13.3219 13.5678)">
<stop offset="0.0568" stop-color="#F7C069"/>
<stop offset="1" stop-color="#936A2E"/>
</radialGradient>
<radialGradient id="paint2_radial_270_741" cx="0" cy="0" r="1" gradientUnits="userSpaceOnUse" gradientTransform="translate(13.7204 16.4524) scale(13.3219 13.5678)">
<stop offset="0.0568" stop-color="#F7C069"/>
<stop offset="1" stop-color="#936A2E"/>
</radialGradient>
<radialGradient id="paint3_radial_270_741" cx="0" cy="0" r="1" gradientUnits="userSpaceOnUse" gradientTransform="translate(13.6283 16.4476) scale(13.3219 13.5678)">
<stop offset="0.0568" stop-color="#F7C069"/>
<stop offset="1" stop-color="#936A2E"/>
</radialGradient>
<radialGradient id="paint4_radial_270_741" cx="0" cy="0" r="1" gradientUnits="userSpaceOnUse" gradientTransform="translate(13.6365 16.449) scale(13.3219 13.5678)">
<stop offset="0.0568" stop-color="#F7C069"/>
<stop offset="1" stop-color="#936A2E"/>
</radialGradient>
<radialGradient id="paint5_radial_270_741" cx="0" cy="0" r="1" gradientUnits="userSpaceOnUse" gradientTransform="translate(13.6394 16.4475) scale(13.3219 13.5678)">
<stop offset="0.0568" stop-color="#F7C069"/>
<stop offset="1" stop-color="#936A2E"/>
</radialGradient>
<radialGradient id="paint6_radial_270_741" cx="0" cy="0" r="1" gradientUnits="userSpaceOnUse" gradientTransform="translate(13.6323 16.4436) scale(13.3219 13.5678)">
<stop offset="0.0568" stop-color="#F7C069"/>
<stop offset="1" stop-color="#936A2E"/>
</radialGradient>
<radialGradient id="paint7_radial_270_741" cx="0" cy="0" r="1" gradientUnits="userSpaceOnUse" gradientTransform="translate(13.6211 16.446) scale(13.3219 13.5678)">
<stop offset="0.0568" stop-color="#F7C069"/>
<stop offset="1" stop-color="#936A2E"/>
</radialGradient>
<radialGradient id="paint8_radial_270_741" cx="0" cy="0" r="1" gradientUnits="userSpaceOnUse" gradientTransform="translate(13.688 16.446) scale(13.3219 13.5678)">
<stop offset="0.0568" stop-color="#F7C069"/>
<stop offset="1" stop-color="#936A2E"/>
</radialGradient>
<radialGradient id="paint9_radial_270_741" cx="0" cy="0" r="1" gradientUnits="userSpaceOnUse" gradientTransform="translate(13.6211 16.4451) scale(13.3219 13.5678)">
<stop offset="0.0568" stop-color="#F7C069"/>
<stop offset="1" stop-color="#936A2E"/>
</radialGradient>
<radialGradient id="paint10_radial_270_741" cx="0" cy="0" r="1" gradientUnits="userSpaceOnUse" gradientTransform="translate(13.688 16.4451) scale(13.3219 13.5678)">
<stop offset="0.0568" stop-color="#F7C069"/>
<stop offset="1" stop-color="#936A2E"/>
</radialGradient>
</defs>
</svg>
