<svg width="140" height="50" viewBox="0 0 140 50" fill="none" xmlns="http://www.w3.org/2000/svg">
<path fill-rule="evenodd" clip-rule="evenodd" d="M18.9577 15.7564C18.7473 15.9668 18.7496 16.3062 18.9577 16.5143C19.1681 16.7247 19.5052 16.7224 19.7156 16.5143C19.7472 16.4826 19.7744 16.4464 19.797 16.4102C20.3535 16.0709 20.9349 15.7859 21.5299 15.5574C22.1361 15.3266 22.7583 15.1502 23.3894 15.0325C23.5749 15.0914 23.7853 15.0461 23.9301 14.9013C24.1382 14.6932 24.1405 14.3516 23.9301 14.1435C23.7378 13.9512 23.4369 13.9354 23.2265 14.096C22.5343 14.2249 21.8511 14.415 21.1883 14.6683C20.53 14.9194 19.8943 15.2316 19.2903 15.6004C19.1704 15.6117 19.0505 15.6637 18.9577 15.7564Z" fill="url(#paint0_radial_271_905)"/>
<path fill-rule="evenodd" clip-rule="evenodd" d="M31.3562 12.3877C32.0055 12.6863 32.6389 13.0347 33.2542 13.4397C33.2497 13.5822 33.3017 13.727 33.4103 13.8356C33.6207 14.0459 33.96 14.0437 34.1681 13.8356C34.3763 13.6274 34.3785 13.2881 34.1681 13.0777C34.0075 12.9171 33.77 12.8786 33.5732 12.9646C32.9352 12.5461 32.2724 12.1819 31.5915 11.8697C30.9015 11.553 30.1934 11.2906 29.474 11.0847C29.4492 11.0033 29.4039 10.9263 29.3406 10.863C29.1302 10.6526 28.7931 10.6549 28.5827 10.863C28.3746 11.0711 28.3723 11.4105 28.5827 11.6208C28.7863 11.8244 29.1143 11.8312 29.3247 11.6367C30.017 11.8335 30.6956 12.0846 31.3562 12.3877Z" fill="url(#paint1_radial_271_905)"/>
<path fill-rule="evenodd" clip-rule="evenodd" d="M35.2314 29.3657L35.2789 29.4109C34.0551 32.5351 31.406 34.9172 28.1733 35.804C28.0014 35.7655 27.8114 35.813 27.6756 35.9465C27.4675 36.1546 27.4675 36.4962 27.6756 36.7043C27.8792 36.9079 28.2027 36.9125 28.4131 36.7224C29.3316 36.4713 30.2229 36.1071 31.069 35.6275C32.8493 34.6186 34.3401 33.1481 35.374 31.3791C35.6884 30.8407 35.9576 30.2819 36.1793 29.7095C36.4485 29.6847 36.7132 29.5693 36.9213 29.3634C37.3873 28.8974 37.3896 28.1396 36.9213 27.6713C36.4553 27.2053 35.6975 27.2053 35.2292 27.6713C34.7654 28.1418 34.7654 28.8997 35.2314 29.3657Z" fill="url(#paint2_radial_271_905)"/>
<path fill-rule="evenodd" clip-rule="evenodd" d="M37.0104 34.0352C36.8362 34.275 36.653 34.508 36.463 34.7365C36.1847 35.0713 35.8816 35.4039 35.5558 35.7296C34.5604 36.725 33.461 37.5417 32.2914 38.1841C31.2146 38.7746 30.079 39.218 28.9117 39.5143C28.7013 39.3084 28.3642 39.3084 28.1561 39.5166C27.948 39.7247 27.948 40.0663 28.1561 40.2744C28.3665 40.4848 28.7058 40.4848 28.9139 40.2744C28.9728 40.2156 29.0157 40.1432 29.0429 40.0686C30.2577 39.7609 31.4431 39.2994 32.5652 38.6818C33.7845 38.0122 34.9292 37.1616 35.9608 36.1323C36.2888 35.8043 36.6032 35.4604 36.9018 35.1007C37.1032 34.8587 37.2932 34.6121 37.4764 34.3632C37.6235 34.37 37.7728 34.318 37.8836 34.2071C38.094 33.9968 38.094 33.6597 37.8836 33.4493C37.6733 33.2389 37.3339 33.2389 37.1258 33.4493C36.9674 33.6076 36.929 33.8407 37.0104 34.0352Z" fill="url(#paint3_radial_271_905)"/>
<path fill-rule="evenodd" clip-rule="evenodd" d="M40.0496 22.4886C39.5474 20.0341 38.4276 17.6836 36.6902 15.6838C36.826 15.2698 36.7287 14.797 36.3984 14.4667C35.9324 14.0007 35.1745 14.0007 34.7085 14.469C34.3601 14.8174 34.2719 15.3218 34.4393 15.7517L31.3966 18.7944C29.7565 17.3171 27.7047 16.5457 25.637 16.4801V14.8671C26.6301 14.9056 27.621 15.0821 28.5757 15.401C29.4579 15.6951 30.3198 16.1114 31.1274 16.652C31.1501 16.6973 31.1817 16.7403 31.2202 16.7765C31.4306 16.9846 31.7699 16.9868 31.978 16.7742C32.1884 16.5638 32.1884 16.2245 31.978 16.0186C31.8898 15.9304 31.7812 15.8784 31.6658 15.8648C30.7858 15.2766 29.847 14.8219 28.8743 14.4984C27.8155 14.1455 26.7252 13.9509 25.6325 13.9125V9.47401C25.8384 9.42424 26.0329 9.32018 26.1935 9.15956C26.6618 8.69128 26.6595 7.93344 26.1935 7.46742C25.7253 6.99914 24.9697 6.99914 24.5014 7.46742C24.0354 7.93344 24.0354 8.69128 24.5014 9.15956C24.662 9.32018 24.8566 9.42424 25.0624 9.47627V10.5101C24.0173 10.5305 22.9789 10.6594 21.9587 10.8947C20.9859 11.1209 20.029 11.4444 19.1105 11.8629C18.9024 11.7317 18.6241 11.7566 18.4454 11.9376C18.235 12.148 18.235 12.485 18.4454 12.6954C18.6558 12.9058 18.9952 12.9058 19.2033 12.6954C19.2915 12.6072 19.3435 12.4963 19.3548 12.3787C20.2371 11.976 21.1533 11.6661 22.0899 11.4512C23.0671 11.225 24.0625 11.1028 25.0624 11.0824V16.4801C22.9925 16.5457 20.9407 17.3171 19.3006 18.7944L18.1672 17.661C18.1536 17.5207 18.0948 17.385 17.9885 17.2809C17.7464 17.0389 17.355 17.0389 17.1107 17.2809C16.8687 17.5207 16.8687 17.9144 17.1107 18.1587C17.217 18.265 17.3528 18.3261 17.4908 18.3374L18.6241 19.4708C17.1469 21.1109 16.3755 23.165 16.3099 25.2326H11.1701C11.143 25.1783 11.1068 25.1263 11.0593 25.0833C10.8172 24.839 10.4236 24.839 10.1815 25.0811C9.93949 25.3231 9.93949 25.7167 10.1815 25.9588C10.2313 26.0086 10.2879 26.047 10.3467 26.0764C10.3897 27.2234 10.5616 28.3635 10.8647 29.4766C11.1724 30.6077 11.6158 31.7116 12.1972 32.7613C12.0886 32.9649 12.1203 33.2228 12.2899 33.3947C12.5003 33.6051 12.8396 33.6051 13.05 33.3947C13.2604 33.1843 13.2604 32.845 13.0478 32.6369C12.9482 32.5373 12.8216 32.4853 12.6926 32.4808C12.1406 31.4764 11.7153 30.4154 11.419 29.3273C11.1272 28.2572 10.962 27.1646 10.919 26.0651C10.9711 26.038 11.0186 26.004 11.0615 25.9588C11.1068 25.9136 11.143 25.8615 11.1747 25.8072H13.7378C13.7581 26.6669 13.8735 27.5265 14.0861 28.3681C14.2965 29.1983 14.5951 30.0082 14.9865 30.7796C14.9865 30.9153 15.0385 31.0511 15.1426 31.1551C15.353 31.3655 15.6923 31.3655 15.9004 31.1551C16.1108 30.9447 16.1108 30.6054 15.9004 30.3973C15.8801 30.3747 15.8552 30.3566 15.8303 30.3385C15.4706 29.6304 15.1969 28.8906 15.0069 28.1373C14.8146 27.3727 14.7082 26.5922 14.6879 25.8095H16.3099C16.3755 27.8794 17.1469 29.9313 18.6241 31.5714L14.8892 35.3063C14.4594 35.1366 13.9527 35.2271 13.6065 35.5755C13.1405 36.0415 13.1383 36.7994 13.6065 37.2654C14.0726 37.7314 14.8304 37.7314 15.2987 37.2654C15.4073 37.1568 15.491 37.0324 15.5498 36.8989C16.4004 37.6319 17.3121 38.254 18.269 38.7652C19.4431 39.3941 20.6873 39.8556 21.9609 40.1497C21.9881 40.2221 22.0288 40.2877 22.0853 40.3465C22.2957 40.5569 22.6351 40.5569 22.8454 40.3465C23.0558 40.1361 23.0558 39.7968 22.8454 39.5887C22.6351 39.3783 22.2957 39.3783 22.0853 39.5887L22.0831 39.5932C20.8615 39.3104 19.6693 38.867 18.5404 38.2608C17.5089 37.7088 16.5293 37.0233 15.6312 36.2021C15.6177 36.1275 15.5973 36.0528 15.5679 35.9804L17.4795 34.0689C18.174 34.7091 18.9318 35.252 19.7326 35.6931C20.3638 36.0415 21.0198 36.3266 21.6917 36.5505C21.7256 36.8016 21.8388 37.0414 22.0288 37.2337C22.4971 37.702 23.2549 37.702 23.7209 37.236C24.1892 36.7677 24.1869 36.0098 23.7209 35.5438C23.2549 35.0755 22.4971 35.0755 22.0288 35.5438C22.0016 35.5732 21.9722 35.6049 21.9473 35.6366C21.3433 35.433 20.7574 35.1773 20.1941 34.8652C19.4747 34.467 18.7893 33.9784 18.1536 33.3947L19.3006 32.2478C20.9407 33.725 22.9925 34.4964 25.0624 34.562V41.8939C25.0285 41.9142 24.9991 41.9391 24.9697 41.9685C24.7593 42.1789 24.7593 42.5183 24.9697 42.7264C25.1801 42.9368 25.5194 42.9368 25.7275 42.7264C25.9379 42.516 25.9379 42.1767 25.7275 41.9685C25.6981 41.9414 25.6664 41.9165 25.6325 41.8939L25.6348 34.562C30.4058 34.4127 34.2357 30.5783 34.3873 25.8095H38.0521C38.0725 25.8434 38.0973 25.8728 38.1267 25.9022C38.3371 26.1126 38.6765 26.1126 38.8846 25.9022C39.095 25.6919 39.095 25.3525 38.8846 25.1444C38.6742 24.934 38.3349 24.934 38.1267 25.1444C38.0973 25.1738 38.0725 25.2055 38.0521 25.2394H34.3873C34.324 23.1672 33.5503 21.1177 32.073 19.4775L33.22 18.3306C33.7335 18.8916 34.1746 19.4889 34.5457 20.1178C34.8239 20.5883 35.0614 21.0769 35.2605 21.5769L35.2175 21.6153C34.7515 22.0836 34.7515 22.8392 35.2175 23.3075C35.6858 23.7735 36.4414 23.7735 36.9097 23.3075C37.3757 22.8392 37.3757 22.0814 36.9097 21.6153C36.7015 21.4072 36.4346 21.2918 36.1609 21.2692C35.9414 20.7082 35.6768 20.163 35.3646 19.6336C34.9528 18.9324 34.4619 18.2695 33.8941 17.6519L35.1157 16.4326C35.532 16.5955 36.0229 16.5163 36.369 16.1928C37.9797 18.0885 39.0181 20.3033 39.4931 22.6085C40.0293 25.2213 39.837 27.9496 38.914 30.4765C38.8145 30.4968 38.7194 30.5466 38.6403 30.6235C38.4299 30.8339 38.4299 31.1732 38.6403 31.3813C38.8507 31.5917 39.19 31.5917 39.3981 31.3813C39.5881 31.1913 39.6062 30.8904 39.4479 30.6801C40.4071 28.0468 40.6061 25.2055 40.0496 22.4886ZM30.917 31.1099C27.8314 34.1955 22.8319 34.1955 19.7462 31.1099C16.6605 28.0242 16.6605 23.0247 19.7462 19.939C22.8319 16.8534 27.8314 16.8534 30.917 19.939C34.0027 23.0224 34.0027 28.0242 30.917 31.1099Z" fill="url(#paint4_radial_271_905)"/>
<path fill-rule="evenodd" clip-rule="evenodd" d="M15.3139 14.7266C15.1035 14.5163 14.7641 14.5163 14.556 14.7266C14.418 14.8646 14.3705 15.0547 14.4135 15.2311C13.4837 16.2197 12.7123 17.3033 12.0993 18.4525C11.4681 19.6357 11.0066 20.8844 10.7148 22.1648C10.6446 22.1897 10.5768 22.2327 10.5202 22.2892C10.3121 22.4974 10.3098 22.839 10.5202 23.0471C10.7306 23.2575 11.0699 23.2575 11.2781 23.0471C11.4885 22.8367 11.4885 22.4974 11.2781 22.2892L11.2735 22.2847C11.5541 21.0563 11.9975 19.8574 12.6037 18.724C13.1896 17.6245 13.9316 16.5839 14.8275 15.6315C14.9972 15.6677 15.1827 15.6179 15.3161 15.4845C15.5243 15.2741 15.5243 14.937 15.3139 14.7266Z" fill="url(#paint5_radial_271_905)"/>
<path d="M25.2331 20.8149C25.6629 20.8149 26.0317 20.8263 26.3348 20.8489C26.6379 20.8715 26.9162 20.9032 27.1718 20.9484C27.4275 20.9914 28.6853 21.1452 28.959 21.2154L28.8006 22.7062C28.5111 22.6881 27.2487 22.5795 27.0067 22.5704C26.7646 22.5614 26.5045 22.5523 26.2285 22.5433C25.9525 22.5342 25.6199 22.5297 25.2331 22.5297C24.7852 22.5297 24.4345 22.6202 24.1834 22.8012C23.9323 22.9821 23.7536 23.2875 23.6496 23.7174C23.5432 24.1495 23.4912 24.7512 23.4912 25.5249C23.4912 26.2895 23.5432 26.8913 23.6496 27.3256C23.7559 27.76 23.9323 28.0676 24.1834 28.2418C24.4345 28.4183 24.7829 28.5065 25.2331 28.5065C25.8394 28.5065 26.3506 28.4974 26.7624 28.4793C27.1764 28.4612 28.3957 28.2757 28.8006 28.2328L28.9726 29.71C28.5495 29.8412 27.3076 30.09 26.8687 30.1489C26.4298 30.2054 25.8846 30.2348 25.2331 30.2348C24.292 30.2348 23.541 30.0833 22.9777 29.7801C22.4144 29.477 22.0072 28.9815 21.7583 28.2961C21.5072 27.6106 21.3828 26.6877 21.3828 25.5249C21.3828 24.3644 21.5072 23.4414 21.7583 22.7537C22.0094 22.0682 22.4166 21.5728 22.9777 21.2696C23.5387 20.9665 24.292 20.8149 25.2331 20.8149Z" fill="url(#paint6_radial_271_905)"/>
<path d="M24.8594 18.5962H23.6016V22.2587H24.8594V18.5962Z" fill="url(#paint7_radial_271_905)"/>
<path d="M26.9805 18.5962H25.7227V22.2587H26.9805V18.5962Z" fill="url(#paint8_radial_271_905)"/>
<path d="M24.8594 28.7896H23.6016V32.4521H24.8594V28.7896Z" fill="url(#paint9_radial_271_905)"/>
<path d="M26.9805 28.7896H25.7227V32.4521H26.9805V28.7896Z" fill="url(#paint10_radial_271_905)"/>
<path d="M50.7914 18.8574C51.3185 18.8574 51.7732 18.8687 52.151 18.8936C52.5288 18.9185 52.8772 18.957 53.1961 19.0113C53.5151 19.0655 53.8409 19.1334 54.178 19.2194L54.0151 20.4251C53.6554 20.3889 53.3228 20.3595 53.0152 20.3347C52.7098 20.3098 52.3817 20.2917 52.0334 20.2804C51.685 20.269 51.271 20.2623 50.7914 20.2623C49.9861 20.2623 49.3504 20.4184 48.8821 20.7305C48.4138 21.0427 48.0813 21.5653 47.8822 22.296C47.6831 23.029 47.5858 24.0243 47.5858 25.2844C47.5858 26.5444 47.6854 27.5421 47.8822 28.2728C48.0813 29.0057 48.4138 29.526 48.8821 29.8382C49.3504 30.1504 49.9861 30.3065 50.7914 30.3065C51.5606 30.3065 52.2053 30.2907 52.7279 30.2613C53.2504 30.2319 53.764 30.1798 54.2684 30.1074L54.4313 31.2951C53.9155 31.4399 53.3839 31.544 52.8387 31.6096C52.2913 31.6752 51.6103 31.7091 50.7959 31.7091C49.6083 31.7091 48.6559 31.501 47.941 31.087C47.2261 30.673 46.7104 29.9966 46.3914 29.0623C46.0724 28.1257 45.9141 26.8657 45.9141 25.2821C45.9141 23.6986 46.0724 22.4363 46.3914 21.502C46.7104 20.5654 47.2261 19.8913 47.941 19.4773C48.6536 19.0655 49.6037 18.8574 50.7914 18.8574Z" fill="url(#paint11_radial_271_905)"/>
<path d="M56.88 22.7303L59.2033 29.2658C59.2644 29.4468 59.3232 29.6233 59.3843 29.7975C59.4454 29.9717 59.4929 30.1481 59.5291 30.3291H59.9431L59.4386 31.4986H58.9703C58.8504 31.4986 58.7396 31.4625 58.6378 31.3901C58.536 31.3177 58.4659 31.2227 58.4297 31.1028L55.2422 22.7303H56.88ZM64.101 22.7303L60.5901 31.985C60.4453 32.3696 60.2666 32.7474 60.0494 33.1184C59.8322 33.4894 59.5721 33.8287 59.2667 34.1364C58.9613 34.4418 58.6016 34.6906 58.1853 34.8829C57.7713 35.0752 57.294 35.1838 56.7533 35.2064L56.6086 34.1975C57.3166 33.969 57.8618 33.6636 58.2464 33.279C58.631 32.8944 58.9364 32.4262 59.1649 31.8742L59.597 30.829C59.692 30.5892 59.7892 30.3246 59.8843 30.0373C59.9793 29.75 60.0698 29.4921 60.1535 29.2636L62.4406 22.728H64.101V22.7303Z" fill="url(#paint12_radial_271_905)"/>
<path d="M67.3385 18.8936V22.1715C67.3385 22.5448 67.3294 22.8864 67.3113 23.1986C67.2932 23.5107 67.248 23.8297 67.1756 24.1532L67.3204 24.4043L67.3385 31.157L65.807 31.0847V18.8958H67.3385V18.8936ZM70.5621 22.5131C71.6435 22.5131 72.4398 22.8637 72.9578 23.5673C73.4736 24.2686 73.7315 25.4427 73.7315 27.0873C73.7315 27.8429 73.6682 28.5103 73.5415 29.0849C73.4148 29.6617 73.2044 30.1436 72.9103 30.5349C72.6162 30.9263 72.2203 31.2204 71.7227 31.4172C71.225 31.6163 70.5961 31.7136 69.8405 31.7136C69.5396 31.7136 69.2161 31.7022 68.8677 31.6774C68.5194 31.6525 68.1664 31.614 67.8045 31.5597C67.4448 31.5054 67.0942 31.4398 66.7503 31.3606C66.4087 31.2837 66.092 31.1887 65.8047 31.0824L67.0285 30.0372C67.352 30.1345 67.6733 30.2114 67.9923 30.2725C68.3112 30.3336 68.6234 30.3721 68.9288 30.3902C69.2342 30.4083 69.526 30.4173 69.802 30.4173C70.3653 30.406 70.82 30.2974 71.1616 30.0938C71.5032 29.8902 71.7521 29.5441 71.9082 29.0577C72.0643 28.5713 72.1412 27.9153 72.1412 27.0851C72.1412 26.282 72.0801 25.6418 71.9602 25.1667C71.8403 24.6916 71.6276 24.3546 71.32 24.1487C71.0146 23.9451 70.578 23.8433 70.0147 23.8433C69.5351 23.8433 69.0781 23.9722 68.646 24.2301C68.214 24.488 67.7163 24.8387 67.1507 25.2843L67.0421 24.2573C67.4018 23.8727 67.7706 23.5515 68.1506 23.2936C68.5284 23.0357 68.922 22.8411 69.3292 22.7077C69.7455 22.5787 70.1527 22.5131 70.5621 22.5131Z" fill="url(#paint13_radial_271_905)"/>
<path d="M79.7093 22.5132C81.0305 22.5132 81.9874 22.753 82.5823 23.2326C83.1773 23.7122 83.4737 24.427 83.4737 25.3749C83.485 26.1554 83.3243 26.7639 82.9873 27.2028C82.6502 27.6416 82.1163 27.8611 81.3856 27.8611H76.2707V26.6734H80.9875C81.3834 26.6734 81.6413 26.5377 81.7612 26.2685C81.881 25.9993 81.9421 25.7007 81.9421 25.3772C81.9308 24.8139 81.7612 24.4112 81.4377 24.1714C81.1142 23.9316 80.5622 23.8117 79.7817 23.8117C79.146 23.8117 78.6438 23.9044 78.2773 24.09C77.9109 24.2755 77.653 24.6012 77.5037 25.0627C77.3543 25.5242 77.2774 26.1712 77.2774 26.9992C77.2774 27.9357 77.3702 28.6506 77.5557 29.1415C77.7412 29.6347 78.0398 29.9695 78.447 30.1504C78.8542 30.3314 79.3949 30.4196 80.0668 30.4196C80.535 30.4196 81.0486 30.3993 81.6073 30.3563C82.1661 30.3156 82.666 30.2636 83.1117 30.2025L83.2746 31.2295C82.9986 31.3381 82.6593 31.4286 82.2566 31.4987C81.8539 31.5711 81.4399 31.6254 81.0146 31.6616C80.5893 31.6978 80.207 31.7159 79.8722 31.7159C78.8633 31.7159 78.0534 31.5621 77.4403 31.2567C76.8273 30.9513 76.3816 30.4581 76.0988 29.7794C75.816 29.1008 75.6758 28.2049 75.6758 27.0874C75.6758 25.9359 75.816 25.0265 76.0988 24.3592C76.3816 23.6918 76.8182 23.219 77.4132 22.9362C78.0081 22.6557 78.7728 22.5132 79.7093 22.5132Z" fill="url(#paint14_radial_271_905)"/>
<path d="M86.965 22.7304L87.1641 24.4044L87.3089 24.6736V31.4987H85.7773V22.7304H86.965ZM91.2678 22.5132L91.089 23.9542H90.5846C90.0688 23.9542 89.553 24.0583 89.0349 24.2687C88.5192 24.4791 87.888 24.7754 87.1437 25.16L87.017 24.2053C87.6663 23.6782 88.3156 23.262 88.9716 22.9634C89.6254 22.6625 90.2588 22.5132 90.8719 22.5132H91.2678Z" fill="url(#paint15_radial_271_905)"/>
<path d="M97.5704 18.8574C98.0975 18.8574 98.5522 18.8687 98.93 18.8936C99.3078 18.9185 99.6562 18.957 99.9751 19.0113C100.294 19.0655 100.62 19.1334 100.957 19.2194L100.794 20.4251C100.434 20.3889 100.102 20.3595 99.7942 20.3347C99.4888 20.3098 99.1607 20.2917 98.8124 20.2804C98.464 20.269 98.05 20.2623 97.5704 20.2623C96.765 20.2623 96.1294 20.4184 95.6611 20.7305C95.1928 21.0427 94.8603 21.5653 94.6612 22.296C94.4621 23.029 94.3648 24.0243 94.3648 25.2844C94.3648 26.5444 94.4644 27.5421 94.6612 28.2728C94.8603 29.0057 95.1928 29.526 95.6611 29.8382C96.1294 30.1504 96.765 30.3065 97.5704 30.3065C98.3373 30.3065 98.9843 30.2907 99.5069 30.2613C100.029 30.2319 100.543 30.1798 101.047 30.1074L101.21 31.2951C100.695 31.4399 100.163 31.544 99.6177 31.6096C99.0702 31.6752 98.3893 31.7091 97.5749 31.7091C96.3873 31.7091 95.4349 31.501 94.72 31.087C94.0051 30.673 93.4893 29.9966 93.1726 29.0623C92.8537 28.1257 92.6953 26.8657 92.6953 25.2821C92.6953 23.6986 92.8537 22.4363 93.1726 21.502C93.4916 20.5654 94.0074 19.8913 94.72 19.4773C95.4303 19.0655 96.3827 18.8574 97.5704 18.8574Z" fill="url(#paint16_radial_271_905)"/>
<path d="M109.689 26.0965L109.671 27.248L105.475 27.2661C105.054 27.2774 104.76 27.3883 104.592 27.5987C104.425 27.809 104.341 28.1009 104.341 28.4719V29.0306C104.341 29.4876 104.45 29.8202 104.665 30.0305C104.882 30.2409 105.228 30.345 105.71 30.345C106.047 30.345 106.427 30.2816 106.852 30.155C107.278 30.0283 107.707 29.8337 108.139 29.569C108.572 29.3044 108.967 28.9696 109.327 28.5601V29.6935C109.196 29.8609 109.006 30.0577 108.759 30.2794C108.513 30.5011 108.219 30.7183 107.877 30.9286C107.535 31.139 107.158 31.3132 106.744 31.4512C106.33 31.5892 105.882 31.6593 105.402 31.6593C104.886 31.6593 104.429 31.5666 104.033 31.3811C103.638 31.1956 103.328 30.9196 103.106 30.5531C102.884 30.1866 102.773 29.741 102.773 29.2116V28.257C102.773 27.5738 102.986 27.0421 103.414 26.6644C103.839 26.2866 104.436 26.0965 105.205 26.0965H109.689ZM107.402 22.5132C108.051 22.5132 108.599 22.6014 109.049 22.7733C109.499 22.9475 109.838 23.2394 110.067 23.6466C110.295 24.0538 110.408 24.6125 110.408 25.3206V31.4965H109.203L108.967 29.5871L108.859 29.3881V25.3183C108.859 24.7777 108.737 24.3908 108.49 24.1578C108.243 23.9226 107.773 23.8072 107.076 23.8072C106.619 23.8072 106.047 23.8321 105.357 23.8796C104.667 23.9271 103.986 23.9814 103.314 24.0424L103.169 22.9091C103.577 22.8367 104.024 22.7711 104.511 22.71C104.997 22.6512 105.493 22.6014 105.997 22.5652C106.502 22.529 106.97 22.5132 107.402 22.5132Z" fill="url(#paint17_radial_271_905)"/>
<path d="M116.063 22.5132C116.448 22.5132 116.855 22.5245 117.287 22.5494C117.719 22.5743 118.149 22.6037 118.574 22.6399C119 22.6761 119.393 22.7236 119.753 22.7847L119.626 23.8999C119.074 23.875 118.52 23.8547 117.961 23.8366C117.403 23.8185 116.848 23.8094 116.296 23.8094C115.756 23.7981 115.33 23.8094 115.018 23.8456C114.706 23.8818 114.48 23.9768 114.342 24.1329C114.204 24.289 114.134 24.5537 114.134 24.9247C114.134 25.3817 114.242 25.6803 114.457 25.8251C114.672 25.9699 114.991 26.0898 115.412 26.1848L117.968 26.7616C118.665 26.929 119.176 27.1869 119.506 27.5353C119.837 27.8837 120.002 28.4289 120.002 29.1732C120.002 29.8925 119.866 30.4332 119.597 30.7929C119.328 31.1526 118.916 31.3924 118.364 31.5123C117.812 31.6322 117.109 31.6933 116.258 31.6933C115.946 31.6933 115.48 31.682 114.862 31.6571C114.245 31.6322 113.564 31.5598 112.819 31.4399L112.928 30.3246C113.215 30.3359 113.523 30.3518 113.846 30.3699C114.17 30.388 114.509 30.397 114.864 30.397C115.217 30.397 115.582 30.397 115.955 30.397C116.615 30.397 117.131 30.3676 117.504 30.3065C117.875 30.2454 118.14 30.1301 118.296 29.9559C118.452 29.7817 118.529 29.5215 118.529 29.1732C118.529 28.7411 118.402 28.4538 118.151 28.309C117.9 28.1642 117.563 28.0443 117.142 27.9493L114.622 27.3724C114.143 27.2525 113.758 27.0942 113.471 26.8951C113.184 26.696 112.973 26.4381 112.84 26.1214C112.708 25.8025 112.641 25.4043 112.641 24.9247C112.641 24.2415 112.761 23.7235 113 23.3774C113.24 23.0312 113.613 22.796 114.118 22.6761C114.622 22.5562 115.272 22.5019 116.063 22.5132Z" fill="url(#paint18_radial_271_905)"/>
<path d="M123.824 18.8936L123.843 22.3683C123.843 22.7642 123.827 23.1375 123.797 23.4859C123.768 23.8342 123.723 24.1396 123.662 24.4043L123.824 24.6735V31.4986H122.293V18.8936H123.824ZM127.623 22.5131C129.206 22.5131 130 23.3185 130 24.9269V31.4986H128.451V25.359C128.451 24.7708 128.358 24.3659 128.172 24.1442C127.987 23.9225 127.666 23.8116 127.209 23.8116C126.668 23.8116 126.127 23.9383 125.589 24.1894C125.051 24.4405 124.406 24.807 123.662 25.2889L123.589 24.1894C124.272 23.6736 124.951 23.2664 125.623 22.9655C126.297 22.6647 126.962 22.5131 127.623 22.5131Z" fill="url(#paint19_radial_271_905)"/>
<defs>
<radialGradient id="paint0_radial_271_905" cx="0" cy="0" r="1" gradientUnits="userSpaceOnUse" gradientTransform="translate(22.9166 25.5358) scale(16.1765 16.1765)">
<stop offset="0.0568" stop-color="#F7C069"/>
<stop offset="1" stop-color="#936A2E"/>
</radialGradient>
<radialGradient id="paint1_radial_271_905" cx="0" cy="0" r="1" gradientUnits="userSpaceOnUse" gradientTransform="translate(22.9136 25.5355) scale(16.1765 16.1765)">
<stop offset="0.0568" stop-color="#F7C069"/>
<stop offset="1" stop-color="#936A2E"/>
</radialGradient>
<radialGradient id="paint2_radial_271_905" cx="0" cy="0" r="1" gradientUnits="userSpaceOnUse" gradientTransform="translate(22.9159 25.5355) scale(16.1765 16.1764)">
<stop offset="0.0568" stop-color="#F7C069"/>
<stop offset="1" stop-color="#936A2E"/>
</radialGradient>
<radialGradient id="paint3_radial_271_905" cx="0" cy="0" r="1" gradientUnits="userSpaceOnUse" gradientTransform="translate(22.9145 25.5358) scale(16.1765 16.1765)">
<stop offset="0.0568" stop-color="#F7C069"/>
<stop offset="1" stop-color="#936A2E"/>
</radialGradient>
<radialGradient id="paint4_radial_271_905" cx="0" cy="0" r="1" gradientUnits="userSpaceOnUse" gradientTransform="translate(22.9156 25.5355) scale(16.1765 16.1765)">
<stop offset="0.0568" stop-color="#F7C069"/>
<stop offset="1" stop-color="#936A2E"/>
</radialGradient>
<radialGradient id="paint5_radial_271_905" cx="0" cy="0" r="1" gradientUnits="userSpaceOnUse" gradientTransform="translate(22.9172 25.5353) scale(16.1765 16.1765)">
<stop offset="0.0568" stop-color="#F7C069"/>
<stop offset="1" stop-color="#936A2E"/>
</radialGradient>
<radialGradient id="paint6_radial_271_905" cx="0" cy="0" r="1" gradientUnits="userSpaceOnUse" gradientTransform="translate(22.9143 25.5359) scale(16.1764 16.1764)">
<stop offset="0.0568" stop-color="#F7C069"/>
<stop offset="1" stop-color="#936A2E"/>
</radialGradient>
<radialGradient id="paint7_radial_271_905" cx="0" cy="0" r="1" gradientUnits="userSpaceOnUse" gradientTransform="translate(22.9138 25.5364) scale(16.1764 16.1765)">
<stop offset="0.0568" stop-color="#F7C069"/>
<stop offset="1" stop-color="#936A2E"/>
</radialGradient>
<radialGradient id="paint8_radial_271_905" cx="0" cy="0" r="1" gradientUnits="userSpaceOnUse" gradientTransform="translate(22.9152 25.5364) scale(16.1764 16.1765)">
<stop offset="0.0568" stop-color="#F7C069"/>
<stop offset="1" stop-color="#936A2E"/>
</radialGradient>
<radialGradient id="paint9_radial_271_905" cx="0" cy="0" r="1" gradientUnits="userSpaceOnUse" gradientTransform="translate(22.9138 25.5362) scale(16.1764 16.1765)">
<stop offset="0.0568" stop-color="#F7C069"/>
<stop offset="1" stop-color="#936A2E"/>
</radialGradient>
<radialGradient id="paint10_radial_271_905" cx="0" cy="0" r="1" gradientUnits="userSpaceOnUse" gradientTransform="translate(22.9152 25.5362) scale(16.1764 16.1765)">
<stop offset="0.0568" stop-color="#F7C069"/>
<stop offset="1" stop-color="#936A2E"/>
</radialGradient>
<radialGradient id="paint11_radial_271_905" cx="0" cy="0" r="1" gradientUnits="userSpaceOnUse" gradientTransform="translate(87.7914 27.8352) scale(27.3177 27.3177)">
<stop offset="0.0568" stop-color="#F7C069"/>
<stop offset="1" stop-color="#936A2E"/>
</radialGradient>
<radialGradient id="paint12_radial_271_905" cx="0" cy="0" r="1" gradientUnits="userSpaceOnUse" gradientTransform="translate(87.7924 27.8351) scale(27.3177 27.3177)">
<stop offset="0.0568" stop-color="#F7C069"/>
<stop offset="1" stop-color="#936A2E"/>
</radialGradient>
<radialGradient id="paint13_radial_271_905" cx="0" cy="0" r="1" gradientUnits="userSpaceOnUse" gradientTransform="translate(87.7903 27.8351) scale(27.3177 27.3177)">
<stop offset="0.0568" stop-color="#F7C069"/>
<stop offset="1" stop-color="#936A2E"/>
</radialGradient>
<radialGradient id="paint14_radial_271_905" cx="0" cy="0" r="1" gradientUnits="userSpaceOnUse" gradientTransform="translate(87.7914 27.8352) scale(27.3177 27.3177)">
<stop offset="0.0568" stop-color="#F7C069"/>
<stop offset="1" stop-color="#936A2E"/>
</radialGradient>
<radialGradient id="paint15_radial_271_905" cx="0" cy="0" r="1" gradientUnits="userSpaceOnUse" gradientTransform="translate(87.7899 27.8352) scale(27.3177 27.3177)">
<stop offset="0.0568" stop-color="#F7C069"/>
<stop offset="1" stop-color="#936A2E"/>
</radialGradient>
<radialGradient id="paint16_radial_271_905" cx="0" cy="0" r="1" gradientUnits="userSpaceOnUse" gradientTransform="translate(87.79 27.8352) scale(27.3177 27.3177)">
<stop offset="0.0568" stop-color="#F7C069"/>
<stop offset="1" stop-color="#936A2E"/>
</radialGradient>
<radialGradient id="paint17_radial_271_905" cx="0" cy="0" r="1" gradientUnits="userSpaceOnUse" gradientTransform="translate(87.7899 27.8352) scale(27.3177 27.3177)">
<stop offset="0.0568" stop-color="#F7C069"/>
<stop offset="1" stop-color="#936A2E"/>
</radialGradient>
<radialGradient id="paint18_radial_271_905" cx="0" cy="0" r="1" gradientUnits="userSpaceOnUse" gradientTransform="translate(87.7915 27.8352) scale(27.3177 27.3177)">
<stop offset="0.0568" stop-color="#F7C069"/>
<stop offset="1" stop-color="#936A2E"/>
</radialGradient>
<radialGradient id="paint19_radial_271_905" cx="0" cy="0" r="1" gradientUnits="userSpaceOnUse" gradientTransform="translate(87.791 27.8351) scale(27.3177 27.3177)">
<stop offset="0.0568" stop-color="#F7C069"/>
<stop offset="1" stop-color="#936A2E"/>
</radialGradient>
</defs>
</svg>
